<svg id="Group_699" data-name="Group 699" xmlns="http://www.w3.org/2000/svg" xmlns:xlink="http://www.w3.org/1999/xlink" width="926.197" height="586.746" viewBox="0 0 926.197 586.746">
  <defs>
    <linearGradient id="linear-gradient" x1="0.515" y1="0.025" x2="0.5" y2="0.945" gradientUnits="objectBoundingBox">
      <stop offset="0.023" stop-color="#fc6"/>
      <stop offset="0.904"/>
    </linearGradient>
    <radialGradient id="radial-gradient" cx="0.436" cy="0.677" r="0.472" gradientTransform="matrix(1.071, -0.432, 0.265, 0.466, 0.635, -3.369)" gradientUnits="objectBoundingBox">
      <stop offset="0" stop-color="#fff"/>
      <stop offset="0.734" stop-color="#929292"/>
      <stop offset="1" stop-color="gray"/>
    </radialGradient>
    <radialGradient id="radial-gradient-2" cx="-0.396" cy="-3.544" r="2.163" gradientTransform="translate(-0.889 0.115) scale(0.762 7.549)" gradientUnits="objectBoundingBox">
      <stop offset="0" stop-color="#cbcbcb"/>
      <stop offset="0.399" stop-color="#747474"/>
      <stop offset="0.601" stop-color="#343434"/>
      <stop offset="0.833" stop-color="#111"/>
      <stop offset="1" stop-color="#0d0d0d"/>
    </radialGradient>
    <radialGradient id="radial-gradient-3" cx="-0.394" cy="-3.542" r="0.986" gradientTransform="translate(4.982 14.555) scale(1.669 16.552)" xlink:href="#radial-gradient-2"/>
  </defs>
  <rect id="Rectangle_178" data-name="Rectangle 178" width="644" height="556" transform="translate(0 29.973)"/>
  <rect id="Rectangle_177" data-name="Rectangle 177" width="926" height="556" transform="translate(0 29.973)"/>
  <path id="Path_134" data-name="Path 134" d="M489.638,585.973l210.893-556h93.575l-.491,556.773Z" transform="translate(131.895)" opacity="0.228" fill="url(#linear-gradient)"/>
  <path id="Path_132" data-name="Path 132" d="M489.638,585.973l363.291-556h161.195l-.845,556.773Z" transform="translate(-88.123)" opacity="0.626" fill="url(#linear-gradient)"/>
  <path id="Path_133" data-name="Path 133" d="M489.638,585.973l308.311-556h136.8l-.717,556.773Z" transform="translate(-8.748)" opacity="0.121" fill="url(#linear-gradient)"/>
  <g id="Group_181" data-name="Group 181">
    <path id="Path_47" data-name="Path 47" d="M770.1,287.146s3.9,75.7,7,84.7,147.8,0,147.8,0v-179.8Z" fill="url(#radial-gradient)"/>
    <path id="Path_43" data-name="Path 43" d="M891.8,307.346s5.6,12,12.1,10.8,8.9-2.1,12.7-9.2S891.8,307.346,891.8,307.346Z"/>
    <path id="Path_41" data-name="Path 41" d="M926.2,124.746s-76.7-29.7-98.8-17.9-45.4,92.4-44.1,112.8c0,0-99,30.4-118.5,57.1s6.7,30.2,6.7,30.2,50,6.2,94.6-4.8,148.3-33.5,160.1-31.5Z" fill="url(#radial-gradient-2)"/>
    <path id="Path_42" data-name="Path 42" d="M847.9,298.746c2.5.1,8.6,10.9,21.6,2.2s34.9-24.1,55.8-20.9v14.7s-17.6-4.4-17.6,6.2,12.6-.3,17.6,4.1v8.3s-38.1-13.9-44.5,4.7c0,0,8.9,13.7,44.5,4.2v3.7s-7.1,10.7-27.8,8.9-14.6-6.3-28-12.6-9.7-6.4-16-8.9S845.4,298.646,847.9,298.746Z"/>
    <path id="Path_44" data-name="Path 44" d="M780,321.246c-1.1.2-4.9-2.1,2.2-7.8s12.6-11.9,30.2-3.2,17.4-11.9,21.3-7.4.7,14.8-4,21c-4.8,6.2-11.5,28.3-24.4,25.1s-9.8-10-7.5-10.2,6.5,1.1,7.5-2.6-6.5-7.1-7.5-9.7-6.1,3.2-7.1,2.8-.5-13.8-2.7-12.3S781.1,321.146,780,321.246Z"/>
    <path id="Path_45" data-name="Path 45" d="M774.8,356.646s19.3,10,36.8,0c0,0,13.5,3.7,21.5-12s26.2-6.3,26.2-6.3,45.7,23.3,65.5,7.8l.5,240.6s-56-49.6-102.3-120S774.8,356.646,774.8,356.646Z" fill="url(#radial-gradient-3)"/>
  </g>
  <g id="Group_180" data-name="Group 180">
    <text id="OW" transform="translate(96.352 225)" fill="#f2ac21" font-size="265" font-family="BradleyHandITCTT-Bold, Bradley Hand" font-weight="700" style="isolation: isolate"><tspan x="0" y="0">OW</tspan></text>
    <text id="OutlawWraps.us" transform="translate(119.498 318)" fill="#96c440" font-size="49" font-family="Arial-BoldMT, Arial" font-weight="700" style="isolation: isolate"><tspan x="0" y="0">OutlawWraps.us</tspan></text>
    <text id="FASTEST_FOOD" data-name="FASTEST FOOD" transform="translate(22.636 403)" fill="#e2e2e2" font-size="21" font-family="Arial-BoldItalicMT, Arial" font-weight="700" font-style="italic" style="isolation: isolate"><tspan x="0" y="0">FASTEST FOOD</tspan></text>
    <text id="_" data-name=" " transform="translate(183.643 403)" fill="#96c440" font-size="21" font-family="Arial-ItalicMT, Arial" font-style="italic" style="isolation: isolate"><tspan x="0" y="0"> </tspan></text>
    <text id="_the" data-name="&amp; the" transform="translate(189.477 403)" fill="#f2ac21" font-size="21" font-family="Arial-ItalicMT, Arial" font-style="italic" style="isolation: isolate"><tspan x="0" y="0">&amp; the</tspan></text>
    <text id="_2" data-name=" " transform="translate(238.512 403)" fill="#96c440" font-size="21" font-family="Arial-ItalicMT, Arial" font-style="italic" style="isolation: isolate"><tspan x="0" y="0"> </tspan></text>
    <text id="BIGGEST" transform="translate(244.346 403)" fill="#e2e2e2" font-size="21" font-family="Arial-BoldItalicMT, Arial" font-weight="700" font-style="italic" style="isolation: isolate"><tspan x="0" y="0">BIGGEST</tspan></text>
    <text id="_3" data-name=" " transform="translate(338.856 403)" fill="#96c440" font-size="21" font-family="Arial-BoldItalicMT, Arial" font-weight="700" font-style="italic" style="isolation: isolate"><tspan x="0" y="0"> </tspan></text>
    <text id="COLDEST_DRINKS" data-name="COLDEST DRINKS" transform="translate(344.691 403)" fill="#4f9ed0" font-size="21" font-family="Arial-BoldItalicMT, Arial" font-weight="700" font-style="italic" style="isolation: isolate"><tspan x="0" y="0">COLDEST DRINKS</tspan></text>
    <text id="food_truck_franchises_r_available" data-name="food truck franchises r available" transform="translate(137.281 510)" fill="#e2e2e2" font-size="23" font-family="Arial-ItalicMT, Arial" font-style="italic" style="isolation: isolate"><tspan x="0" y="0">food truck franchises r available</tspan></text>
    <text id="in_the_Wild_Wild_West" data-name="in the Wild Wild West" transform="translate(143.775 459)" fill="#f2ac21" font-size="33" font-family="Arial-BoldItalicMT, Arial" font-weight="700" font-style="italic" style="isolation: isolate"><tspan x="0" y="0">in the Wild Wild West</tspan></text>
  </g>
  <path id="Union_9" data-name="Union 9" d="M553,521.973c-18.7-43.3,18.2-94.3,82.3-114s131.3-.6,149.9,42.7c8.7,20.1,5.4,41.8-7.1,61.3,1.8,1.9,15.6,14.5,45.6-.2,0,0-18.6,36.6-99.4,44.7a178.184,178.184,0,0,1-21.4,8.2,173.4,173.4,0,0,1-51.1,7.7C606.4,572.373,566.7,553.673,553,521.973Z" fill="#e2e2e2" stroke="#707070" stroke-width="1"/>
  <text id="Eat_Our_" data-name="Eat Our " transform="translate(607.146 471)" font-size="30" font-family="Arial-ItalicMT, Arial" font-style="italic" style="isolation: isolate"><tspan x="0" y="0">Eat Our </tspan></text>
  <text id="Food_Or_Else_" data-name="Food Or Else!" transform="translate(570.466 523)" font-size="30" font-family="Arial-ItalicMT, Arial" font-style="italic" style="isolation: isolate"><tspan x="0" y="0">Food Or Else!</tspan></text>
</svg>
